<svg width="16" height="18" viewBox="0 0 16 18" fill="none" xmlns="http://www.w3.org/2000/svg">
<path d="M12.9997 9.67952C12.9997 9.31523 13.0971 8.97369 13.2673 8.67952H8.49976C7.67133 8.67952 6.99976 8.00795 6.99976 7.17952V0.695923C3.09074 0.953216 -0.000244141 4.2054 -0.000244141 8.17952C-0.000244141 12.1536 3.09074 15.4058 6.99976 15.6631V13.6795C6.99976 12.575 7.89519 11.6795 8.99976 11.6795C9.36404 11.6795 9.70558 11.7769 9.99976 11.9471V11.6795C9.99976 10.575 10.8952 9.67952 11.9998 9.67952C12.364 9.67952 12.7056 9.77691 12.9997 9.94707V9.67952ZM7.99976 0.695923V7.17952C7.99976 7.45566 8.22361 7.67952 8.49976 7.67952H14.9834C14.7369 3.93577 11.7435 0.942338 7.99976 0.695923ZM13.9997 9.67932C13.9997 9.12704 14.4474 8.67932 14.9997 8.67932C15.552 8.67932 15.9997 9.12704 15.9997 9.67932V16.6793C15.9997 17.2316 15.552 17.6793 14.9997 17.6793C14.4474 17.6793 13.9997 17.2316 13.9997 16.6793V9.67932ZM7.99976 13.6793C7.99976 13.127 8.44747 12.6793 8.99976 12.6793C9.55204 12.6793 9.99976 13.127 9.99976 13.6793V16.6793C9.99976 17.2316 9.55204 17.6793 8.99976 17.6793C8.44747 17.6793 7.99976 17.2316 7.99976 16.6793V13.6793ZM10.9998 11.6793C10.9998 11.127 11.4475 10.6793 11.9998 10.6793C12.552 10.6793 12.9998 11.127 12.9998 11.6793V16.6793C12.9998 17.2316 12.552 17.6793 11.9998 17.6793C11.4475 17.6793 10.9998 17.2316 10.9998 16.6793V11.6793Z" fill="#AFAFAF"/>
</svg>
