<svg width="16" height="17" viewBox="0 0 16 17" fill="none" xmlns="http://www.w3.org/2000/svg">
<path d="M3.5 13.5134H12.5C12.9142 13.5134 13.25 13.8492 13.25 14.2634C13.25 14.6431 12.9678 14.9569 12.6018 15.0066L12.5 15.0134H3.5C3.08579 15.0134 2.75 14.6776 2.75 14.2634C2.75 13.8837 3.03215 13.5699 3.39823 13.5203L3.5 13.5134H12.5H3.5ZM7.89823 1.52027L8 1.51343C8.3797 1.51343 8.69349 1.79558 8.74315 2.16166L8.75 2.26343V9.95143L11.0052 7.69756C11.2715 7.4313 11.6881 7.40709 11.9817 7.62495L12.0659 7.69756C12.3321 7.96383 12.3563 8.38049 12.1385 8.67411L12.0659 8.75822L8.53033 12.2938C8.26406 12.56 7.8474 12.5842 7.55379 12.3664L7.46967 12.2938L3.93414 8.75822C3.64124 8.46533 3.64124 7.99046 3.93414 7.69756C4.2004 7.4313 4.61707 7.40709 4.91068 7.62495L4.9948 7.69756L7.25 9.95343V2.26343C7.25 1.88373 7.53215 1.56994 7.89823 1.52027L8 1.51343L7.89823 1.52027Z" fill="#212121"/>
</svg>
