<svg width="18" height="18" viewBox="0 0 18 18" fill="none" xmlns="http://www.w3.org/2000/svg">
<g clip-path="url(#clip0_307_2315)">
<path d="M10.3733 3.89567C10.3545 3.88673 10.3366 3.87583 10.3201 3.86314C10.3076 3.85375 10.2951 3.845 10.2826 3.83499C10.0949 3.70986 9.9072 3.59412 9.707 3.4815L9.71138 3.46962C8.37816 2.7564 6.73338 2.76391 5.29756 3.49089C5.27441 3.51591 5.26565 3.52968 5.25376 3.53593C3.96434 4.18722 2.98648 5.17258 2.19506 6.36628C2.14688 6.44386 1.84283 6.94437 1.53001 7.50743C1.49998 7.58689 1.48246 7.64507 1.45681 7.6995C0.986041 8.68687 0.687084 9.74729 0.572799 10.8352C0.526174 11.2231 0.505274 11.6137 0.510236 12.0045C0.518369 12.1096 0.522748 12.179 0.52963 12.2485C0.605331 13.0355 0.814292 13.7813 1.2441 14.4519C1.97046 15.5925 3.06218 16.2212 4.3222 16.5903C5.74926 17.0083 7.21073 17.0714 8.68284 16.9532C9.14643 16.9157 9.60565 16.8281 10.0886 16.7611C9.28345 15.1633 9.26092 13.608 10.1975 12.1146C11.1341 10.6212 12.5555 9.97492 14.3423 9.99807C13.7067 7.4505 12.5061 5.34588 10.3733 3.89567Z" fill="white"/>
<path d="M5.08109 2.89968C6.65706 2.12703 8.45136 2.12015 9.93098 2.87779C10.0886 2.45236 10.2465 2.02651 10.4046 1.60025C10.576 1.13603 10.5297 0.99464 10.118 0.719988C9.24216 0.134399 8.27243 -0.0307678 7.24014 0.00301624C6.42491 0.0193747 5.63007 0.260793 4.94346 0.700594C4.46172 1.01341 4.42168 1.13478 4.61938 1.66406C4.77412 2.07698 4.92802 2.48885 5.08109 2.89968Z" fill="white"/>
<path d="M17.4905 14.5145C17.49 14.9781 17.3973 15.437 17.2175 15.8643C17.0378 16.2917 16.7747 16.6789 16.4437 17.0034C16.1126 17.328 15.7202 17.5833 15.2894 17.7545C14.8585 17.9257 14.3979 18.0093 13.9344 18.0005C12.03 17.9836 10.489 16.3933 10.5015 14.4582C10.5134 12.5381 12.1082 10.9891 14.0501 11.0116C14.97 11.0227 15.8481 11.3972 16.4927 12.0536C17.1373 12.7099 17.496 13.5946 17.4905 14.5145ZM14.5369 14.009C14.5143 13.9646 14.5018 13.9514 14.5018 13.9377C14.4981 13.6342 14.5018 13.3302 14.4918 13.0261C14.4818 12.7221 14.2904 12.5156 14.0038 12.5125C13.7173 12.5094 13.5033 12.7183 13.5002 13.0374C13.4948 13.5129 13.4948 13.9883 13.5002 14.4638C13.5039 14.8035 13.7004 14.9987 14.042 15.0025C14.5093 15.0075 14.9773 15.0069 15.4453 15.0025C15.78 14.9994 15.9939 14.7948 15.9896 14.4939C15.9852 14.1929 15.7819 14.0146 15.449 14.009C15.1456 14.004 14.8415 14.0084 14.5369 14.0084V14.009Z" fill="white"/>
</g>
<defs>
<clipPath id="clip0_307_2315">
<rect width="18" height="18" fill="white"/>
</clipPath>
</defs>
</svg>
