<svg width="18" height="18" viewBox="0 0 18 18" fill="none" xmlns="http://www.w3.org/2000/svg">
<g clip-path="url(#clip0_307_2281)">
<path d="M11.8176 17.9993C11.4142 17.9054 10.9931 17.8585 10.6109 17.7129C8.79909 17.0124 7.71359 15.694 7.49761 13.7583C7.20886 11.1877 8.9714 8.95661 11.5283 8.55518C14.0275 8.16267 16.4892 9.96088 16.8807 12.4648C17.2981 15.1363 15.5328 17.5491 12.8641 17.9543C12.7702 17.9683 12.681 17.9843 12.589 18.0012L11.8176 17.9993ZM10.5161 14.3372C10.548 14.5719 10.6663 14.7597 10.8635 14.8424C10.9628 14.8888 11.0744 14.9021 11.1818 14.8804C11.2892 14.8587 11.3868 14.8031 11.4603 14.7217C12.1986 13.9855 12.9359 13.2481 13.6721 12.5094C13.7235 12.461 13.7646 12.4028 13.7929 12.3382C13.8213 12.2736 13.8364 12.204 13.8373 12.1334C13.8382 12.0629 13.8248 11.9929 13.798 11.9276C13.7713 11.8623 13.7316 11.8031 13.6815 11.7535C13.4702 11.5445 13.1514 11.5459 12.927 11.7694C12.1871 12.5041 11.4506 13.2421 10.7175 13.9836C10.6255 14.0785 10.5818 14.2198 10.5161 14.3386V14.3372ZM11.0485 12.6206C11.1173 12.6211 11.1855 12.608 11.2491 12.5819C11.3128 12.5558 11.3706 12.5174 11.4193 12.4687C11.4679 12.4201 11.5065 12.3623 11.5326 12.2987C11.5587 12.2351 11.572 12.1669 11.5715 12.0981C11.5712 11.9592 11.516 11.826 11.4181 11.7275C11.3202 11.629 11.1874 11.573 11.0485 11.5718C10.9096 11.5738 10.777 11.63 10.6788 11.7282C10.5806 11.8265 10.5246 11.9592 10.5227 12.0981C10.5233 12.2372 10.5789 12.3704 10.6775 12.4686C10.776 12.5667 10.9094 12.6219 11.0485 12.6221V12.6206ZM13.8148 14.3329C13.812 14.1944 13.7548 14.0626 13.6555 13.9659C13.5562 13.8693 13.4229 13.8156 13.2843 13.8165C13.2156 13.8168 13.1477 13.8307 13.0845 13.8574C13.0213 13.8842 12.964 13.9232 12.916 13.9722C12.8679 14.0213 12.8301 14.0794 12.8047 14.1431C12.7792 14.2069 12.7667 14.2751 12.7678 14.3437C12.7688 14.4827 12.8248 14.6156 12.9235 14.7133C13.0223 14.8111 13.1557 14.8657 13.2946 14.8654C13.4332 14.8615 13.5649 14.8039 13.662 14.7049C13.759 14.6058 13.8138 14.473 13.8148 14.3344V14.3329Z" fill="white"/>
<path d="M4.73504 4.94183C5.11769 5.29256 5.56325 5.38317 6.04966 5.3766C6.82858 5.3658 7.60749 5.37378 8.3864 5.37378C8.94089 5.37378 9.18457 5.29256 9.64422 4.94747L11.7063 7.47201C11.6593 7.41473 11.1255 7.55746 11.0443 7.57437C10.8236 7.61985 10.6057 7.67785 10.3917 7.74808C9.9702 7.88684 9.5661 8.07369 9.18738 8.30492C8.40612 8.78147 7.77276 9.4754 7.26991 10.2374C7.06732 10.54 6.89913 10.8642 6.76848 11.2041C6.67548 11.4564 6.60233 11.7156 6.54969 11.9793C6.28723 13.2535 6.40179 14.5527 6.96192 15.7321C6.97647 15.7635 6.98868 15.7964 7.00136 15.8293C7.00136 15.8335 6.99854 15.8401 6.99666 15.8466C6.99478 15.8532 6.98023 15.8659 6.97178 15.8659C5.70833 15.8631 4.46742 15.7302 3.32041 15.1494C1.97152 14.4667 1.26585 13.347 1.0879 11.8586C0.938598 10.606 1.36961 9.52329 2.00109 8.48897C2.62225 7.4706 3.3899 6.56398 4.1505 5.64844C4.34112 5.41932 4.53268 5.18879 4.73504 4.94183Z" fill="white"/>
<path d="M7.18212 0.00214854C7.73848 0.00214854 8.29532 -0.00536359 8.85169 0.00214854C9.04412 0.00626303 9.23238 0.0590146 9.39893 0.15549C9.56548 0.251964 9.70491 0.389024 9.80422 0.553901C9.90353 0.718777 9.95949 0.906107 9.9669 1.09844C9.97431 1.29077 9.93291 1.48185 9.84658 1.65388C9.78804 1.75371 9.71052 1.84112 9.6184 1.91117C9.47479 2.02959 9.32529 2.1407 9.17048 2.24405C9.12383 2.27123 9.0697 2.28275 9.01602 2.27692C8.82493 2.26001 8.63431 2.21494 8.44369 2.21306C7.59857 2.20618 6.75502 2.20618 5.91304 2.21306C5.72805 2.21306 5.54353 2.26001 5.35808 2.27504C5.2944 2.27624 5.23192 2.25771 5.1792 2.22198C5.07778 2.1539 4.99891 2.037 4.88998 1.9985C4.45005 1.84309 4.32657 1.21583 4.44536 0.824727C4.51554 0.590349 4.65854 0.384412 4.85363 0.236766C5.04872 0.0891197 5.28576 0.00743687 5.53039 0.00355706C6.08206 -0.00066851 6.63138 0.00214854 7.18212 0.00214854Z" fill="white"/>
<path d="M7.17413 4.31881C6.72951 4.31881 6.28441 4.32304 5.83979 4.31881C5.54963 4.31506 5.34305 4.13711 5.29516 3.86761C5.27721 3.74776 5.30174 3.62541 5.3645 3.52174C5.42727 3.41807 5.52432 3.33962 5.63884 3.29998C5.71107 3.27712 5.78658 3.26633 5.86233 3.26805C6.74594 3.26555 7.62955 3.26555 8.51317 3.26805C8.84652 3.26805 9.07658 3.48168 9.07658 3.78451C9.07658 4.08734 8.85215 4.31506 8.508 4.31881C8.06338 4.32163 7.61875 4.31881 7.17413 4.31881Z" fill="white"/>
</g>
<defs>
<clipPath id="clip0_307_2281">
<rect width="18" height="18" fill="white"/>
</clipPath>
</defs>
</svg>
