<svg width="16" height="18" viewBox="0 0 16 18" fill="none" xmlns="http://www.w3.org/2000/svg">
<path d="M14.1292 7.50076C13.6253 7.63164 13.2862 7.90948 12.9705 8.23131C12.4823 8.73123 11.9783 9.21933 11.4809 9.71174C11.4294 9.76537 11.3757 9.81204 11.3144 9.87265C10.8229 9.3899 10.2294 9.26976 9.57305 9.27834C8.24618 9.2955 6.91985 9.28746 5.59298 9.28209C4.90677 9.28209 4.32579 9.51166 3.84516 9.99495C3.6233 10.2181 3.39926 10.4385 3.15949 10.6762C2.81882 10.0411 2.68375 9.39366 2.78681 8.71567C2.95281 7.61769 3.44103 6.6522 4.05672 5.74624C4.59485 4.95347 5.2393 4.25027 5.91304 3.57174C5.99692 3.48261 6.05141 3.37037 6.06927 3.24991C6.13491 2.76234 6.49999 2.41261 6.99688 2.40993C8.06626 2.40421 9.13564 2.40421 10.205 2.40993C10.7198 2.40993 11.0925 2.78004 11.1337 3.28746C11.1468 3.38349 11.1914 3.47262 11.2607 3.54117C12.0906 4.36291 12.8669 5.2281 13.4598 6.2365C13.6963 6.63825 13.8981 7.06146 14.1292 7.50076Z" fill="white"/>
<path d="M8.544 14.2801C8.5657 12.2687 10.2848 10.6129 12.3272 10.6359C14.3451 10.6579 16.0083 12.3105 15.9888 14.2742C15.9682 16.3892 14.3109 18.0225 12.2138 17.9957C10.1926 17.9699 8.5223 16.2787 8.544 14.2801ZM11.8595 14.6658C11.674 14.477 11.5031 14.2967 11.3258 14.124C11.1484 13.9513 10.9645 13.9502 10.8256 14.0945C10.6867 14.2388 10.7008 14.4105 10.863 14.5746C11.1035 14.8185 11.3471 15.0595 11.5937 15.2976C11.7847 15.4827 11.9491 15.4832 12.1395 15.2976C12.4291 15.0171 12.7139 14.7312 13.0003 14.448C13.2347 14.2163 13.4723 13.9878 13.7012 13.7507C13.8455 13.6011 13.8401 13.416 13.7039 13.2873C13.5775 13.1671 13.3942 13.1703 13.2483 13.298C13.194 13.3468 13.1398 13.401 13.0893 13.4525L11.8595 14.6658Z" fill="white"/>
<path d="M8.0937 15.583C7.57185 15.6543 7.07712 15.7251 6.5813 15.7836C6.52706 15.79 6.45274 15.7401 6.4126 15.6946C6.29814 15.5642 6.20917 15.4103 6.08712 15.2885C5.03835 14.2429 3.98651 13.2007 2.9316 12.1619C2.87735 12.1083 2.81768 12.067 2.75204 12.0133C2.80629 11.9543 2.83613 11.9141 2.87247 11.8782C3.31512 11.4362 3.7585 10.9946 4.2026 10.5533C4.3945 10.355 4.62697 10.1994 4.88448 10.0969C5.142 9.99443 5.41866 9.94742 5.696 9.95899C7.05542 9.98367 8.41646 9.96704 9.77642 9.9665C10.1106 9.9665 10.4165 10.047 10.6851 10.2583C10.3894 10.423 10.0954 10.5678 9.81873 10.7448C9.34562 11.0483 8.94339 11.448 8.63887 11.9173C8.61419 11.9634 8.57631 12.0011 8.52998 12.026C8.48366 12.0508 8.43096 12.0615 8.37849 12.0568C8.01992 12.0482 7.66135 12.0568 7.30278 12.0568C7.03155 12.0568 6.8802 12.1769 6.884 12.3835C6.8878 12.59 7.03318 12.6962 7.29356 12.6972C7.59083 12.6972 7.89027 12.6972 8.21575 12.6972C7.85211 13.6191 7.80917 14.6344 8.0937 15.583Z" fill="white"/>
<path d="M5.92707 16.2658C5.85167 16.4026 5.80122 16.5624 5.69706 16.6724C5.32602 17.0618 4.93761 17.4384 4.553 17.8117C4.29099 18.0643 3.94165 18.0643 3.68506 17.8117C2.51912 16.662 1.3568 15.5106 0.198096 14.3574C-0.0677114 14.0924 -0.064999 13.7518 0.200809 13.4831C0.569323 13.1097 0.941454 12.7398 1.3172 12.3733C1.5944 12.1051 1.97575 12.1051 2.23939 12.3695C3.37133 13.4927 4.50328 14.6161 5.63522 15.7396C5.78886 15.8781 5.89153 16.0633 5.92707 16.2658Z" fill="white"/>
<path d="M10.9948 1.97277C10.6693 1.79201 10.3438 1.76197 10.0069 1.76411C9.05274 1.77109 8.09855 1.75661 7.14489 1.7727C6.84057 1.77752 6.53788 1.85047 6.2341 1.89285L6.23084 1.95614C6.21406 1.93068 6.20005 1.90353 6.18907 1.87515C6.07244 1.40152 5.95364 0.927891 5.84244 0.452654C5.77843 0.177489 5.91621 0.0138914 6.20426 0.0106731C6.67512 0.00477282 7.10909 0.137796 7.52625 0.345377C7.98171 0.576926 8.50203 0.652392 9.00555 0.559931C9.22796 0.519702 9.43952 0.42208 9.65651 0.35235C10.0086 0.239173 10.3617 0.121705 10.7149 0.0197916C10.8206 -0.00359293 10.9299 -0.00741197 11.0371 0.00852752C11.2975 0.0337376 11.4217 0.182853 11.3664 0.432271C11.2541 0.942373 11.1233 1.44926 10.9948 1.97277Z" fill="white"/>
<path d="M15.0887 11.0109C14.2207 10.3221 13.2666 9.98153 12.1681 9.99494C12.1808 9.96332 12.1972 9.93325 12.2169 9.90537C12.6845 9.44032 13.1445 8.96777 13.623 8.51398C13.8446 8.30837 14.1281 8.17992 14.4304 8.14817C14.7326 8.11641 15.0371 8.18308 15.2975 8.33805C15.821 8.64325 16.1112 9.27887 15.9599 9.83081C15.9115 10.0044 15.8299 10.1671 15.7196 10.3103C15.5297 10.5522 15.3089 10.77 15.0887 11.0109Z" fill="white"/>
</svg>
