<svg width="18" height="18" viewBox="0 0 18 18" fill="none" xmlns="http://www.w3.org/2000/svg">
<g clip-path="url(#clip0_307_2260)">
<path d="M2.47241 11.5779C2.96612 11.0595 3.53389 10.6699 4.29699 10.7778C4.58034 10.8175 4.88729 10.9087 5.1159 11.0719C5.8935 11.6273 6.77949 11.9149 7.66817 12.2128C7.87746 12.2831 8.08943 12.3443 8.29604 12.421C8.71462 12.5761 8.92337 13.0553 8.79082 13.5394C8.66685 13.9944 8.31804 14.2064 7.84365 14.1179L6.56161 13.8796C6.37164 13.8447 6.24661 13.9113 6.22031 14.0615C6.19401 14.2118 6.28041 14.311 6.47897 14.3481C6.91258 14.4302 7.35155 14.4903 7.77925 14.5955C8.58421 14.7946 9.35375 14.0819 9.31404 13.1927C9.30921 13.0805 9.30277 12.955 9.25126 12.8605C9.12246 12.626 9.21745 12.4768 9.3822 12.3105C9.65052 12.0421 9.89684 11.747 10.1539 11.4652C10.5145 11.0714 11.0291 11.096 11.3345 11.5318C11.6296 11.9498 11.6329 12.3861 11.3946 12.8364C10.5419 14.4463 9.33819 15.7294 7.81252 16.7163C7.69135 16.7999 7.56597 16.8773 7.43687 16.9481C7.07303 17.1349 6.69309 17.1665 6.30993 17.0093C5.6123 16.7206 4.91788 16.4238 4.22454 16.1249C4.16011 16.0979 4.10793 16.048 4.07804 15.9848C3.92027 15.5308 3.78021 15.0725 3.6219 14.618C3.35358 13.8481 3.07935 13.0804 2.79923 12.3147C2.71444 12.0711 2.59155 11.8398 2.47241 11.5779Z" fill="white"/>
<path d="M3.95288 4.86457C4.01137 4.82647 4.06933 4.78676 4.1289 4.75027C5.69339 3.79612 7.25733 2.84162 8.82075 1.88676C8.99708 1.77038 9.20009 1.70071 9.41073 1.68429C9.62137 1.66786 9.83272 1.70521 10.025 1.79284C10.7226 2.08317 11.4202 2.37134 12.1248 2.64074C12.3255 2.71748 12.5542 2.7207 12.7688 2.76631C12.83 2.77919 12.9142 2.80817 12.9373 2.85486C13.5008 3.99951 14.0573 5.14738 14.6122 6.28936C14.6031 6.31136 14.6009 6.32907 14.5918 6.33443C13.9661 6.71008 13.3484 7.09485 12.7082 7.44152C12.5 7.55422 12.2359 7.57515 11.9934 7.61003C10.934 7.76136 9.87417 7.90661 8.81377 8.04578C8.33079 8.10964 8.03886 7.83112 8.07106 7.34815C8.09736 6.95211 8.28572 6.67252 8.67049 6.52762C9.42179 6.2432 10.1666 5.95127 10.9142 5.66202C10.9834 5.63741 11.0502 5.60651 11.1138 5.56972C11.3397 5.4259 11.3939 5.07118 11.1707 4.93702C10.7288 4.66547 10.2662 4.42915 9.78724 4.23027C9.43949 4.0902 9.07458 4.23027 8.73435 4.36174C8.56394 4.42167 8.3994 4.49712 8.24279 4.58713C7.82421 4.84418 7.37933 4.92414 6.8883 4.90912C5.97602 4.88175 5.06802 4.90107 4.15788 4.90107H3.96522L3.95288 4.86457Z" fill="white"/>
<path d="M2.96602 9.94816C2.65477 9.19686 2.43904 8.9983 1.70009 8.76755C1.69687 8.7332 1.69043 8.69456 1.69043 8.65539C1.69043 8.03986 1.69043 7.42434 1.69043 6.80881C1.69043 6.7149 1.69741 6.65533 1.816 6.62581C2.36284 6.48951 2.72829 6.14767 2.91934 5.61532C2.93421 5.58307 2.95659 5.55484 2.98459 5.533C3.0126 5.51115 3.04543 5.49632 3.08033 5.48975C5.22689 5.48975 7.37471 5.49279 9.52377 5.49887C9.55217 5.507 9.57967 5.51797 9.60588 5.5316C9.18998 5.6926 8.80682 5.84071 8.42527 5.99097C8.08756 6.11967 7.80849 6.36728 7.6405 6.68726C7.4725 7.00723 7.42716 7.37755 7.51298 7.72861C7.64714 8.3055 8.11938 8.67793 8.70969 8.64412C9.04885 8.6248 9.38532 8.56738 9.72931 8.5266C9.77438 8.679 9.76741 8.76701 9.57475 8.80887C9.04724 8.92425 8.68822 9.25321 8.48591 9.75336C8.46122 9.81453 8.44191 9.87839 8.41776 9.94816H2.96602ZM5.63474 6.26788C5.34673 6.26532 5.06446 6.34844 4.8238 6.50667C4.58314 6.6649 4.39494 6.8911 4.28312 7.15653C4.1713 7.42196 4.14091 7.71463 4.19581 7.99738C4.2507 8.28012 4.3884 8.54016 4.59142 8.74446C4.79444 8.94876 5.0536 9.0881 5.33599 9.14478C5.61838 9.20146 5.91124 9.17292 6.17737 9.06278C6.4435 8.95264 6.67088 8.76588 6.83063 8.52622C6.99038 8.28656 7.07528 8.00482 7.07454 7.7168C7.07455 7.3341 6.92315 6.96694 6.65339 6.69547C6.38364 6.424 6.01744 6.27028 5.63474 6.26788ZM2.74493 8.00444C2.85825 8.01089 2.97184 8.01089 3.08516 8.00444C3.15359 7.99908 3.21721 7.96717 3.26244 7.91553C3.30766 7.86389 3.3309 7.79662 3.32718 7.72807C3.33094 7.57137 3.24615 7.44902 3.08248 7.43721C2.86292 7.42138 2.6425 7.42138 2.42294 7.43721C2.27107 7.44795 2.18521 7.56172 2.18146 7.7109C2.17792 7.74599 2.18147 7.78143 2.19188 7.81513C2.2023 7.84882 2.21937 7.88008 2.24209 7.90706C2.26481 7.93403 2.29272 7.95617 2.32415 7.97216C2.35559 7.98815 2.38991 7.99767 2.42509 8.00015C2.53148 8.00883 2.63834 8.01027 2.74493 8.00444Z" fill="white"/>
<path d="M13.2551 2.06546C13.2551 1.7687 13.3625 1.58248 13.5771 1.47193C14.1046 1.19717 14.6343 0.92617 15.1683 0.666972C15.5053 0.501687 15.8321 0.636384 16.0108 1.00398C16.5295 2.07404 17.0469 3.14518 17.5627 4.21739C17.6846 4.47014 17.8101 4.72129 17.9266 4.97673C18.0849 5.32394 17.9862 5.63036 17.6502 5.80853C17.1493 6.07506 16.6447 6.33604 16.1364 6.59148C15.7806 6.76965 15.4505 6.66178 15.2777 6.30653C14.6255 4.97351 13.9774 3.63889 13.3335 2.30265C13.3007 2.22596 13.2744 2.14661 13.2551 2.06546Z" fill="white"/>
<path d="M0 12.9244C0.0128794 12.5171 0.166895 12.2429 0.478683 12.0685C0.705682 11.9413 0.938048 11.8221 1.17202 11.7078C1.60134 11.4975 2.05372 11.6746 2.21794 12.1243C2.67122 13.3596 3.11931 14.5966 3.56222 15.8351C3.72697 16.2972 3.54505 16.741 3.11091 16.9739C2.89625 17.0909 2.67408 17.2057 2.45191 17.3141C2.01938 17.525 1.57289 17.3495 1.40814 16.8977C0.95844 15.6677 0.512313 14.437 0.0697633 13.2056C0.0405307 13.1134 0.0172286 13.0195 0 12.9244Z" fill="white"/>
<path d="M9.07202 9.94442C9.11483 9.80026 9.19971 9.67217 9.31577 9.57656C9.43184 9.48095 9.57382 9.42218 9.7235 9.40778C9.81044 9.88914 9.68111 9.99862 9.07202 9.94442Z" fill="white"/>
<path d="M2.31177 5.50801C2.19532 5.79994 1.99569 5.97167 1.72146 6.02748C1.62057 5.56597 1.77674 5.42429 2.31177 5.50801Z" fill="white"/>
<path d="M1.70592 9.39545C1.8408 9.43042 1.96596 9.49561 2.07194 9.58606C2.17793 9.67652 2.26196 9.78989 2.31769 9.9176C1.84169 10.0587 1.65387 9.90365 1.70592 9.39545Z" fill="white"/>
<path d="M5.62242 8.72194C5.42342 8.72257 5.22873 8.66402 5.06308 8.55373C4.89744 8.44344 4.76832 8.28639 4.69215 8.10255C4.61598 7.9187 4.59618 7.71636 4.63529 7.52124C4.67439 7.32612 4.77062 7.14703 4.91175 7.00673C5.05288 6.86643 5.23254 6.77126 5.42789 6.73332C5.62324 6.69537 5.82546 6.71636 6.00885 6.79362C6.19224 6.87088 6.34852 7.00092 6.45782 7.16722C6.56713 7.33351 6.62453 7.52855 6.62272 7.72754C6.61922 7.9912 6.51252 8.24299 6.32551 8.42889C6.13851 8.61479 5.8861 8.71999 5.62242 8.72194Z" fill="white"/>
</g>
<defs>
<clipPath id="clip0_307_2260">
<rect width="18" height="18" fill="white"/>
</clipPath>
</defs>
</svg>
