<svg width="159" height="45" viewBox="0 0 159 45" fill="none" xmlns="http://www.w3.org/2000/svg">
<g clip-path="url(#clip0_307_2236)">
<path d="M39.8753 20.7143C40.0564 20.8529 40.2834 20.913 40.5074 20.8817C40.7715 20.8472 41.0188 20.7303 41.2158 20.5469C41.401 20.3683 41.4773 20.2121 41.4555 20.067C41.4337 19.9219 41.2921 19.7321 41.0414 19.5982C40.7905 19.4759 40.5107 19.4294 40.235 19.4643C40.0542 19.4948 39.8827 19.5674 39.7337 19.6763C39.652 19.7243 39.5877 19.7981 39.5504 19.8866C39.513 19.9751 39.5047 20.0736 39.5266 20.1674C39.5413 20.2794 39.5802 20.3866 39.6406 20.4812C39.7009 20.5758 39.7811 20.6555 39.8753 20.7143Z" fill="white"/>
<path d="M78.0397 11.9531C78.1051 11.9531 78.1378 11.8973 78.1269 11.8304C78.095 11.6983 78.027 11.5782 77.9307 11.4844C77.8657 11.4111 77.7881 11.3506 77.7019 11.3058C77.5665 11.249 77.4229 11.2151 77.2769 11.2054C75.0939 11.0511 72.901 11.1447 70.7381 11.4844L68.5586 11.7188L68.8637 11.3616C69.4205 10.7173 69.9339 10.0349 70.4003 9.3192C70.4282 9.28546 70.4493 9.24639 70.4624 9.20425C70.4755 9.1621 70.4803 9.11772 70.4766 9.07366C70.4233 8.87062 70.3118 8.68863 70.1563 8.55132C70.0009 8.41401 69.8087 8.32769 69.6048 8.30357C68.9727 8.78348 68.1771 9.34152 67.2181 10C66.4444 10.5357 65.7578 11.0156 65.1693 11.4509C64.5808 11.8862 64.2975 12.154 64.2975 12.2768C63.7608 12.4959 63.1951 12.6314 62.6192 12.6786L59.0447 13.2478C57.5517 13.4598 56.6472 13.5714 56.342 13.5826C56.1134 13.5978 55.8841 13.5978 55.6555 13.5826C55.4718 13.5648 55.2956 13.4995 55.1433 13.3929C55.0282 13.3192 54.9034 13.2628 54.7727 13.2254C54.8484 13.4096 54.9639 13.5737 55.1106 13.7054C55.1798 13.7952 55.2648 13.8709 55.3612 13.9286C56.0149 14.3368 56.7774 14.5242 57.5408 14.4643C59.1306 14.4633 60.7184 14.3477 62.2923 14.1183C62.9534 14.029 63.5528 13.9621 64.0904 13.9174H64.1667C63.9946 14.219 63.7899 14.4998 63.5564 14.7545C63.0442 15.3795 62.4013 16.2388 61.6166 17.3214C61.3006 17.7455 61.0063 18.1808 60.7012 18.6049C60.5486 18.7054 60.2871 18.9063 59.9274 19.1853C59.5678 19.4643 59.0338 19.8996 58.5325 20.3013C58.102 20.6246 57.6333 20.8909 57.1376 21.0938C57.1652 20.8528 57.1652 20.6093 57.1376 20.3683C57.1155 20.1946 57.0598 20.0271 56.9737 19.8757C56.8876 19.7243 56.7729 19.592 56.6363 19.4866C56.2927 19.2441 55.872 19.1444 55.4593 19.2076C55.0743 19.2751 54.7047 19.4151 54.3695 19.6205C54.1007 19.7842 53.7374 20.0409 53.2797 20.3906C53.437 20.1043 53.6117 19.8285 53.8028 19.5647C54.4022 18.6719 54.8272 17.9911 55.0888 17.5335C55.2082 17.3568 55.2865 17.1545 55.3176 16.942C55.2998 16.8595 55.2624 16.7828 55.2087 16.7188C55.1549 16.6376 55.0887 16.566 55.0125 16.5067C54.9362 16.4397 54.8817 16.4063 54.8381 16.4174C54.7945 16.4286 54.3586 16.7969 53.8246 17.5335C53.2906 18.2701 52.7348 19.0402 52.0592 19.9554L51.7867 20.3683C51.5797 20.5804 51.2527 20.8817 50.7841 21.3058C50.1085 21.8973 49.3674 22.5112 48.6045 23.1362C47.9958 23.6332 47.3427 24.0704 46.6538 24.442L47.166 23.5268C48.0706 21.942 48.6263 20.9152 48.8225 20.4688C48.9136 20.306 48.9588 20.1206 48.9533 19.933C48.9556 19.8996 48.9486 19.8661 48.9332 19.8365C48.9178 19.8069 48.8945 19.7823 48.8661 19.7656C48.804 19.7135 48.7341 19.672 48.659 19.6429L48.5392 19.5759L47.8962 20.4464L47.7 20.3237C47.5628 20.2308 47.4167 20.1522 47.2641 20.0893C47.1114 20.0418 46.9483 20.0418 46.7955 20.0893C46.3366 20.1757 45.9037 20.3706 45.5313 20.6585C45.2881 20.8371 45.0619 21.0389 44.8557 21.2612L44.6486 21.3951C44.4416 21.596 43.9185 21.9978 43.112 22.6004C42.3056 23.2031 41.4446 23.8058 40.5619 24.3862C40.0074 24.8137 39.3841 25.1385 38.7202 25.346C38.6663 25.3581 38.6106 25.3581 38.5567 25.346C38.6009 25.1831 38.6631 25.0258 38.742 24.8772C38.872 24.5788 39.0251 24.2914 39.1997 24.0179C39.5375 23.4487 39.7664 23.0357 39.8862 22.7902C39.9799 22.6308 40.0359 22.4511 40.0497 22.2656C40.0062 22.1518 39.9253 22.057 39.8209 21.9978C39.765 21.8888 39.68 21.7983 39.5758 21.7371C39.4716 21.6758 39.3524 21.6462 39.2324 21.6518C39.0798 21.6518 38.8619 21.8192 38.5785 22.154C38.4259 22.3214 38.2734 22.5 38.1317 22.6897C37.99 22.8795 37.8919 22.9353 37.7394 23.0692C37.1797 23.5795 36.5862 24.0494 35.963 24.4755C35.6815 24.7007 35.3826 24.9022 35.0694 25.0781L35.1239 24.7433C35.163 24.6125 35.1885 24.4778 35.2002 24.3415C35.2119 24.1743 35.2119 24.0065 35.2002 23.8393C35.1434 23.5143 35.0044 23.2103 34.7969 22.9576C34.5681 22.6339 34.3501 22.3549 34.154 22.1094C34.0245 21.9776 33.9143 21.8272 33.827 21.6629H33.9469C33.9862 21.6733 34.0275 21.6733 34.0668 21.6629C34.2083 21.598 34.3346 21.5029 34.4373 21.3839C34.6215 21.2107 34.7893 21.0201 34.9386 20.8147C35.0145 20.7273 35.0837 20.634 35.1457 20.5357C35.1693 20.4557 35.1693 20.3702 35.1457 20.2902C35.1239 20.185 35.0734 20.0882 35.0001 20.0112C34.9268 19.9342 34.8337 19.88 34.7316 19.8549C34.4597 19.7533 34.1667 19.7263 33.8815 19.7768C33.455 19.8612 33.0701 20.0938 32.7917 20.4353C32.6473 20.5682 32.5334 20.7322 32.458 20.9155C32.3827 21.0988 32.3478 21.2968 32.3558 21.4955C32.3826 21.6484 32.4421 21.7932 32.5302 21.9196C32.6651 22.1266 32.8264 22.3143 33.0097 22.4777C33.2967 22.6789 33.5021 22.9805 33.5873 23.3259C33.6038 23.8926 33.4997 24.4563 33.2821 24.9777C33.2125 25.151 33.1578 25.3303 33.1187 25.5134C33.0899 25.6039 33.0716 25.6975 33.0642 25.7924C33.0642 26.0603 33.3039 26.2612 33.6636 26.3951C33.9595 26.5216 34.2823 26.5677 34.6008 26.529C35.1482 26.3598 35.6511 26.066 36.072 25.6696C36.3844 25.4241 36.6895 25.1674 36.9874 24.8996C36.9656 25.0363 36.9656 25.1758 36.9874 25.3125C36.9998 25.4512 37.0437 25.585 37.1156 25.7032C37.1875 25.8214 37.2854 25.9208 37.4015 25.9933C37.6138 26.1405 37.8561 26.2359 38.1099 26.2723C38.1999 26.2896 38.2923 26.2896 38.3823 26.2723C39.4038 25.9371 40.3541 25.407 41.1831 24.7098C41.9895 24.1629 42.6979 23.6496 43.3627 23.1585C43.3355 23.3135 43.3355 23.4722 43.3627 23.6272C43.4104 23.8916 43.5497 24.1293 43.755 24.2969C43.9279 24.4563 44.1546 24.5404 44.3871 24.5313C44.5111 24.5054 44.6293 24.4562 44.7358 24.3862C44.913 24.2691 45.084 24.1425 45.248 24.0067V24.0848C44.8578 24.7703 44.4208 25.4267 43.9403 26.0491C42.5017 26.7857 41.2594 27.3326 40.1696 27.9018C37.5755 27.9865 34.9884 28.225 32.4212 28.6161L30.0346 28.9174C30.2519 28.4712 30.4447 28.0129 30.6122 27.5446C30.7215 27.1837 30.7476 26.8016 30.6884 26.4286C30.6747 26.3109 30.6491 26.1949 30.6122 26.0826C30.4229 25.6196 30.1408 25.2026 29.7841 24.8584C29.4274 24.5143 29.0041 24.2507 28.5416 24.0848C27.1879 23.5295 25.749 23.2234 24.2914 23.1808H23.5285L23.801 23.0357C25.3049 22.3103 26.4165 21.7522 27.0704 21.3504C27.777 20.9514 28.461 20.5117 29.1192 20.0335C30.3945 19.1257 31.5905 18.1063 32.6937 16.9866C34.8732 14.7991 36.1265 13.1287 36.4534 11.9754C36.4862 11.7647 36.4862 11.55 36.4534 11.3393C36.4272 11.165 36.3758 10.9958 36.3008 10.8371C36.0021 10.4328 35.6235 10.0976 35.1898 9.85337C34.756 9.60914 34.2768 9.46134 33.7834 9.41964C32.8525 9.32591 31.9133 9.36724 30.9936 9.54241C30.3397 9.64286 29.7839 9.74331 29.3153 9.84375C28.8467 9.9442 28.3018 10.1004 27.6915 10.279C22.5711 11.7984 17.7086 14.1133 13.2736 17.1429C12.0047 17.9756 10.8408 18.9651 9.80812 20.0893C9.70995 20.1899 9.63542 20.312 9.59016 20.4464C9.61755 20.5199 9.6672 20.5825 9.73183 20.625C9.77606 20.6677 9.83449 20.6917 9.8953 20.692C10.0329 20.6484 10.162 20.5804 10.2767 20.4911L11.2357 19.7991C12.173 19.0551 13.0448 18.4412 13.8512 17.9576C14.6468 17.4442 15.5404 16.9196 16.4994 16.3728C20.894 13.8576 25.6116 11.9867 30.5141 10.8147C30.9173 10.7254 31.3205 10.6585 31.7128 10.5915C32.6598 10.43 33.6234 10.3963 34.579 10.4911C34.6862 10.4956 34.7908 10.5262 34.8841 10.5804C34.9218 10.6317 34.9411 10.6948 34.9386 10.7589C35.0476 11.5179 33.9469 13.1362 31.6148 15.6027C30.2256 17.0321 28.6995 18.3146 27.0595 19.4308C25.1927 20.6588 23.232 21.7301 21.1964 22.6339L20.2265 23.0804L19.7797 23.2589C19.9585 22.8619 20.1816 22.4874 20.4444 22.1429C21.3163 20.8147 21.9157 19.8326 22.2535 19.2188C22.4968 18.8513 22.6535 18.4311 22.7112 17.9911C22.6951 17.9039 22.6576 17.8223 22.6024 17.754C22.5471 17.6857 22.4758 17.6329 22.3952 17.6004C22.2016 17.4995 21.9905 17.4388 21.774 17.4219C21.6431 17.4618 21.5285 17.544 21.447 17.6563L21.1201 18.0022C20.4117 18.8393 19.7688 19.6652 19.1912 20.4911C18.6136 21.317 18.1014 22.154 17.502 23.0134L16.8481 24.0179L16.652 24.3304C16.58 24.4401 16.4716 24.5194 16.3468 24.5536L16.118 24.6317C15.6893 24.7805 15.1662 24.9926 14.5487 25.2679C14.1749 25.4231 13.811 25.602 13.4589 25.8036C12.7505 26.2054 12.3691 26.4732 12.3691 26.596C12.3691 26.7188 12.3691 26.7076 12.5435 26.808C12.5727 26.8389 12.6088 26.8621 12.6486 26.8757C12.6884 26.8893 12.7309 26.8929 12.7723 26.8862C13.0884 26.7969 13.3979 26.685 13.6987 26.5513C14.1277 26.3776 14.5684 26.2359 15.0173 26.1272C15.0777 26.1083 15.1422 26.1083 15.2026 26.1272C15.0905 26.4527 14.9286 26.7578 14.7231 27.0313C13.9748 28.0568 13.417 29.2144 13.0775 30.4464V30.5246C13.0798 30.5848 13.0946 30.6438 13.1209 30.6976C13.1472 30.7515 13.1844 30.7991 13.23 30.8371C13.3662 30.9318 13.5125 31.0104 13.666 31.0714C13.8191 31.1444 13.9881 31.1752 14.1564 31.1607C14.2653 31.1607 14.3198 31.0938 14.3089 31.0156C14.4 30.7137 14.5481 30.4331 14.7449 30.1897C15.05 29.7321 15.7257 28.75 16.7937 27.2321L18.254 25.1451L19.1694 24.8214C19.42 24.7098 19.638 24.6429 19.8015 24.5871C20.0164 24.5307 20.2349 24.4896 20.4553 24.4643L21.0547 24.3862C22.9376 24.0604 24.8605 24.0604 26.7434 24.3862C27.464 24.4613 28.1597 24.6975 28.7813 25.0781C28.9199 25.2458 29.0071 25.4515 29.032 25.6696C28.9999 26.783 28.5872 27.8495 27.8659 28.683L27.4845 29.2188C26.1985 29.4755 25.3049 29.6429 24.76 29.7321L21.9701 30.2902C18.7788 31.0318 15.6314 31.9597 12.5435 33.0692C8.86645 34.2877 5.40145 36.0959 2.27768 38.4263C1.21668 39.2163 0.420933 40.3237 2.62e-05 41.596C-0.0296311 41.807 -0.0296311 42.0212 2.62e-05 42.2322C0.0126485 42.3985 0.0418618 42.563 0.0872092 42.7232C0.129482 42.8497 0.188127 42.9698 0.261575 43.0804C0.873966 43.8381 1.69985 44.3838 2.62641 44.6429C3.61143 44.9446 4.64078 45.0655 5.66692 45C5.7541 45 6.2772 44.933 7.23622 44.788C8.19523 44.6429 8.86 44.4755 9.29591 44.3527C13.1857 42.9584 16.8567 40.9921 20.1938 38.5156C23.4797 36.2992 26.4191 33.5862 28.9121 30.4688L29.2826 29.9888L33.6418 29.3527L36.7804 28.8951H36.7041V28.9732V29.0848C37.5279 29.4283 38.387 29.6754 39.2651 29.8214C39.9797 29.9858 40.714 30.0422 41.4446 29.9888C42.1388 29.8783 42.7783 29.5371 43.2646 29.0179C44.0206 28.1693 44.6923 27.2459 45.2698 26.2612C46.7285 25.458 48.1081 24.5124 49.3892 23.4375L49.7706 23.1027C49.6063 23.3472 49.4846 23.6191 49.411 23.9063C49.4366 24.0214 49.489 24.1286 49.5636 24.2188C49.6024 24.2775 49.6571 24.3235 49.7209 24.3512C49.7847 24.379 49.8549 24.3872 49.9232 24.375C50.0774 24.3438 50.2205 24.2706 50.3373 24.1629C51.443 23.1458 52.5997 22.1884 53.8028 21.2946C54.4764 20.7696 55.208 20.3276 55.9824 19.9777V20.0893C55.9865 20.388 56.0083 20.6862 56.0478 20.9821C56.0643 21.1555 56.1202 21.3225 56.211 21.4698C56.3019 21.6171 56.4251 21.7406 56.5709 21.8304C56.7692 21.9454 56.9995 21.9887 57.2248 21.9531C57.8113 21.7778 58.3616 21.4941 58.8486 21.1161L59.012 20.9933C58.1402 22.3214 57.3011 23.6942 56.4728 25.1228C55.8517 26.1265 55.3018 27.1746 54.8272 28.2589C54.7556 28.4274 54.7256 28.6114 54.7401 28.7946C54.759 28.9114 54.8167 29.0178 54.9035 29.096C54.987 29.1934 55.0822 29.2797 55.1869 29.3527C55.285 29.4085 55.3503 29.442 55.383 29.4308C55.4898 29.3297 55.5816 29.2131 55.6555 29.0848C55.8226 28.8542 56.0078 28.5752 56.2113 28.2478C59.2999 23.2722 62.7306 18.528 66.4771 14.0513C66.6618 13.8319 66.8622 13.6267 67.0765 13.4375C67.1398 13.3929 67.2097 13.359 67.2835 13.3371C67.7194 13.2478 69.4086 12.9911 72.3728 12.5558C74.7377 12.1987 76.3614 12.0201 77.2333 11.9866L78.0397 11.9531ZM25.9915 31.1384C23.808 33.4705 21.398 35.5684 18.7989 37.3996C16.2195 39.2796 13.4675 40.8981 10.5819 42.2322C8.95219 43.005 7.2242 43.5386 5.44896 43.817C4.46207 44.0047 3.44984 44.0047 2.46295 43.817C1.72189 43.6384 1.30777 43.2701 1.23149 42.7009C1.20968 42.5529 1.20968 42.4024 1.23149 42.2545C1.355 41.0491 2.44478 39.7359 4.50085 38.3147C8.22792 35.6883 14.0801 33.4375 22.0573 31.5625L24.6946 30.971C25.6318 30.7701 26.2094 30.6473 26.4492 30.6138H26.5255L25.9915 31.1384ZM42.4037 27.7902L42.262 27.9464H42.1748H41.9133L42.5453 27.6786C42.5061 27.7377 42.4584 27.7904 42.4037 27.8348V27.7902ZM37.3252 28.8505H36.9329L38.1426 28.7165C37.9644 28.7898 37.7825 28.8531 37.5977 28.9063L37.3252 28.8505ZM40.9324 28.9955C40.7371 29.0785 40.5319 29.1348 40.3222 29.163C39.8597 29.2331 39.3897 29.2331 38.9272 29.163H38.7093L40.3984 28.538C40.878 28.538 41.3466 28.471 41.7825 28.4598L41.6408 28.5938C41.4175 28.7564 41.1804 28.8983 40.9324 29.0179V28.9955ZM45.2916 22.913C44.892 23.3371 44.6087 23.5603 44.4416 23.5826C44.4271 23.5927 44.41 23.5981 44.3925 23.5981C44.375 23.5981 44.3579 23.5927 44.3435 23.5826C44.4465 23.2384 44.6171 22.9194 44.8448 22.6451C45.1517 22.2034 45.4944 21.789 45.8692 21.4063C46.1603 21.0403 46.5344 20.7529 46.959 20.5692C46.9698 20.5658 46.9811 20.565 46.9923 20.5667C47.0034 20.5683 47.0141 20.5725 47.0235 20.5789C47.0328 20.5854 47.0407 20.5938 47.0465 20.6037C47.0523 20.6136 47.0559 20.6247 47.0571 20.6362C47.0713 20.6892 47.1019 20.7362 47.1442 20.7701C47.0353 20.9263 46.7955 21.2165 46.4359 21.6629C46.0762 22.1094 45.6621 22.5335 45.2698 22.9576L45.2916 22.913Z" fill="white"/>
<path d="M100.402 2.67858C100.374 2.50244 100.327 2.33017 100.26 2.16518C100.067 1.58101 99.7132 1.06623 99.2417 0.682308C98.7702 0.29838 98.2008 0.0615208 97.6014 3.25264e-06C97.0578 -0.0235086 96.5133 0.0139161 95.9776 0.11161C95.3689 0.19835 94.7726 0.359468 94.2013 0.591521C93.2017 1.03909 92.2488 1.58874 91.3569 2.23215C90.8829 2.5779 90.4281 2.95051 89.9947 3.34822C89.6896 3.61607 89.2972 3.99554 88.8395 4.46429C88.3818 4.93304 87.9895 5.33483 87.6843 5.69197C87.5658 5.84904 87.4127 5.97523 87.2375 6.06027H87.0741L86.6164 6.17188C85.3598 6.64901 84.2106 7.38174 83.238 8.3259C81.9151 9.52768 80.7337 10.8836 79.718 12.3661C77.8573 15.0205 76.3373 17.9087 75.1954 20.9598C74.2524 23.3594 73.8501 25.9459 74.0184 28.5268C74.0901 29.1217 74.2713 29.6974 74.5524 30.2232C74.8166 30.6992 75.1908 31.1016 75.6422 31.3951C76.1032 31.6881 76.6194 31.8783 77.157 31.9531C77.7605 32.0423 78.3734 32.0423 78.9769 31.9531C81.5232 31.3784 83.8832 30.145 85.8317 28.3705C89.6639 25.2884 93.0313 21.6443 95.8251 17.5558C96.9902 15.7554 98.0002 13.8546 98.8438 11.875C99.6103 10.1547 100.181 8.34961 100.544 6.49554C100.634 6.01704 100.685 5.53176 100.696 5.04465C100.692 4.56276 100.656 4.08174 100.587 3.60491C100.489 3.16965 100.446 2.86831 100.402 2.67858ZM98.7675 8.59375C98.2527 10.5334 97.5214 12.4059 96.5879 14.1741C95.5909 16.1245 94.4004 17.9646 93.0352 19.6652C90.8603 22.3591 88.449 24.8434 85.8317 27.0871C82.8893 29.5982 80.568 30.9821 78.8898 31.2277C78.5466 31.2718 78.1983 31.2453 77.8654 31.1496C77.4804 31.0359 77.1335 30.8158 76.8627 30.5134C76.4146 29.9757 76.1405 29.3089 76.0781 28.6049C75.9398 26.1789 76.3115 23.7507 77.1679 21.4844C78.0654 18.9297 79.231 16.4823 80.6443 14.1853C81.8991 12.0124 83.4433 10.029 85.2323 8.29241C85.4657 8.03776 85.7251 7.80952 86.0061 7.61161C85.8112 7.97567 85.5773 8.31632 85.3086 8.62724C83.5025 10.979 82.0345 13.5836 80.9495 16.3616C80.6853 16.9544 80.5019 17.5815 80.4046 18.2254C80.4046 18.3259 80.5898 18.3482 80.8078 18.3259C80.9253 18.3125 81.0358 18.2618 81.1238 18.1808C81.2563 17.913 81.3727 17.6372 81.4726 17.3549C83.1121 13.2573 85.4642 9.49849 88.4145 6.26116C89.9719 4.35935 91.8509 2.76019 93.9615 1.54018C94.6602 1.12423 95.4231 0.833591 96.2174 0.680807C96.7255 0.583679 97.2508 0.674659 97.6995 0.937503C98.1188 1.20873 98.455 1.59555 98.6694 2.05357C98.9301 2.61696 99.0995 3.22011 99.1707 3.83929C99.3444 5.43583 99.2074 7.0518 98.7675 8.59375Z" fill="white"/>
<path d="M104.794 9.82143C104.919 9.90085 105.055 9.96101 105.197 10C105.33 10.0257 105.467 10.0257 105.6 10C105.711 9.98605 105.817 9.94408 105.909 9.87785C106 9.81162 106.074 9.7232 106.124 9.62054C106.246 9.26211 106.272 8.87681 106.2 8.50447C106.2 8.39286 106.2 8.30358 106.2 8.25893C106.171 8.20544 106.134 8.15657 106.091 8.11384C105.991 8.01556 105.872 7.93956 105.742 7.89063C105.614 7.81337 105.463 7.78566 105.317 7.8125C105.294 7.81012 105.271 7.81402 105.25 7.82383C105.229 7.83363 105.211 7.84898 105.197 7.86831C105.186 7.92728 105.186 7.98791 105.197 8.04688C105.209 8.45436 105.073 8.85188 104.816 9.16295C104.663 9.35268 104.587 9.48661 104.598 9.55358C104.608 9.61092 104.63 9.66509 104.664 9.71165C104.699 9.75821 104.743 9.79583 104.794 9.82143Z" fill="white"/>
<path d="M158.782 4.24107H158.695C158.659 4.2354 158.622 4.2354 158.586 4.24107C158.371 4.32009 158.172 4.43721 157.997 4.58705C157.79 4.78794 157.267 5.18973 156.461 5.79241C155.654 6.39509 154.793 6.99777 153.911 7.57812C153.356 8.00563 152.733 8.33046 152.069 8.53794C152.016 8.55583 151.959 8.55583 151.905 8.53794C151.955 8.37682 152.017 8.22006 152.091 8.06919C152.221 7.77076 152.374 7.48339 152.548 7.20982C152.886 6.64062 153.115 6.22768 153.235 5.98214C153.331 5.82401 153.388 5.64367 153.398 5.45759C153.373 5.38311 153.328 5.3174 153.268 5.26785L153.333 5.17857C153.324 5.13232 153.303 5.08938 153.272 5.0541C153.242 5.01882 153.202 4.99246 153.159 4.97768C153.062 4.95691 152.962 4.95691 152.864 4.97768C152.819 4.95845 152.768 4.95845 152.723 4.97768C152.7 5.00645 152.675 5.03265 152.647 5.0558C152.432 5.16666 152.243 5.32257 152.091 5.51339C151.993 5.61384 151.905 5.7366 151.807 5.85937L150.99 6.57366C150.24 7.22498 149.413 7.77626 148.527 8.21428C148.527 8.21428 148.527 7.96875 148.527 7.62277C148.527 7.06473 148.527 6.71875 148.527 6.57366C148.491 6.46261 148.433 6.36053 148.356 6.27403C148.279 6.18752 148.185 6.1185 148.08 6.07143C147.863 5.95517 147.615 5.91221 147.372 5.94866C146.371 6.44533 145.486 7.15719 144.778 8.03571C144.771 7.9466 144.771 7.85696 144.778 7.76785C144.778 7.62277 144.778 7.47768 144.855 7.33259C144.876 7.20703 144.876 7.07868 144.855 6.95312C144.833 6.82329 144.784 6.69994 144.71 6.59188C144.637 6.48383 144.541 6.39376 144.43 6.32812C144.244 6.17824 144.012 6.10284 143.776 6.11607C143.468 6.19825 143.179 6.34242 142.926 6.54018C142.544 6.79687 142.163 7.06473 141.836 7.34375C141.509 7.62277 141.193 7.85714 141.018 8.01339C141.193 7.70089 141.313 7.46652 141.389 7.2991C141.452 7.14396 141.474 6.97476 141.454 6.80803C141.428 6.67878 141.367 6.55927 141.28 6.46205C141.192 6.351 141.09 6.25329 140.975 6.17187C140.899 6.105 140.802 6.06921 140.702 6.07143C140.423 6.21703 140.178 6.42259 139.983 6.6741C139.831 6.84152 139.667 7.02009 139.515 7.20982L139.351 7.36607C138.677 8.04839 137.947 8.67184 137.172 9.22991C136.972 9.39594 136.747 9.52785 136.507 9.62053C136.543 9.4554 136.565 9.28735 136.572 9.1183C136.59 8.96632 136.59 8.8127 136.572 8.66071C136.512 8.49268 136.406 8.34564 136.267 8.2366C136.207 8.17279 136.134 8.12361 136.053 8.0927C135.971 8.06179 135.885 8.04994 135.798 8.05803C135.315 8.24196 134.868 8.51424 134.48 8.8616L134.273 8.99553V8.92857C134.307 8.87771 134.333 8.82106 134.349 8.76116C134.36 8.69468 134.36 8.62674 134.349 8.56027C134.309 8.38148 134.226 8.21563 134.108 8.07742C133.99 7.9392 133.841 7.83287 133.673 7.76785C133.562 7.7444 133.447 7.7444 133.335 7.76785C133.117 7.91051 132.925 8.09192 132.769 8.30357L132.071 8.90625C131.534 9.34524 130.923 9.81398 130.24 10.3125C129.648 10.7506 129.012 11.1246 128.344 11.4286C128.273 11.403 128.21 11.3566 128.163 11.2952C128.117 11.2338 128.089 11.16 128.083 11.0826C128.058 10.7801 128.111 10.4763 128.235 10.2009C128.361 9.85538 128.517 9.52279 128.704 9.20759C128.827 8.97693 128.973 8.76 129.14 8.56027C129.249 8.4375 129.347 8.32589 129.412 8.2366C129.456 8.18809 129.489 8.13116 129.51 8.06919C129.46 7.90711 129.351 7.77114 129.205 7.68973C129.061 7.57952 128.884 7.52427 128.704 7.53348C128.596 7.57716 128.501 7.65054 128.431 7.74553C128.312 7.8683 128.159 8.05803 127.974 8.29241H127.887C127.784 8.23347 127.674 8.18845 127.56 8.15848C127.394 8.13097 127.224 8.13097 127.058 8.15848C126.696 8.20411 126.345 8.31761 126.023 8.4933C125.362 8.83046 124.758 9.27522 124.236 9.81027C124.05 10 123.833 10.2009 123.571 10.4464C123.028 10.9577 122.448 11.4277 121.838 11.8527C121.554 12.0797 121.252 12.2814 120.934 12.4554V12.1205C120.977 11.9947 121.003 11.8631 121.01 11.7299C121.029 11.5556 121.029 11.3797 121.01 11.2054C120.941 10.8878 120.803 10.5903 120.607 10.3348C120.378 10.0112 120.16 9.73214 119.953 9.4866C119.746 9.24107 119.637 9.09598 119.637 9.04018H119.746C119.785 9.05057 119.826 9.05057 119.866 9.04018C120.011 8.9766 120.141 8.8814 120.247 8.76116C120.428 8.58784 120.592 8.39725 120.738 8.19196C120.82 8.1107 120.89 8.01654 120.945 7.91294C120.968 7.83289 120.968 7.74746 120.945 7.66741C120.925 7.56306 120.876 7.46666 120.805 7.38955C120.734 7.31245 120.642 7.25783 120.541 7.23214C120.266 7.13107 119.969 7.10417 119.68 7.15402C119.252 7.23389 118.866 7.46734 118.591 7.8125C118.436 7.94917 118.316 8.12188 118.24 8.31611C118.164 8.51033 118.135 8.72038 118.155 8.92857C118.177 9.0808 118.233 9.22582 118.318 9.35268C118.453 9.55968 118.614 9.74734 118.798 9.91071C118.798 9.91071 118.863 9.98884 118.907 10.0223C118.713 10.1584 118.534 10.3156 118.373 10.4911C117.587 11.2937 116.73 12.0186 115.812 12.6562C115.069 13.1801 114.226 13.5341 113.338 13.6942C113.237 13.5698 113.173 13.419 113.153 13.2589C113.116 13.0823 113.116 12.8999 113.153 12.7232C113.199 12.5416 113.265 12.3657 113.349 12.1987C113.414 12.0424 113.48 11.9643 113.512 11.9643C113.545 11.9643 113.567 11.9643 113.61 12.0201C113.68 12.0812 113.762 12.1268 113.85 12.154C113.971 12.1877 114.099 12.1877 114.221 12.154C114.543 12.0793 114.841 11.9174 115.082 11.6853C115.412 11.4218 115.702 11.1096 115.942 10.7589C116.148 10.5182 116.261 10.2084 116.259 9.88839C116.233 9.77525 116.179 9.67073 116.103 9.58477C116.027 9.49882 115.93 9.43429 115.823 9.39732C115.543 9.25317 115.226 9.20615 114.918 9.26339C114.451 9.35466 114.014 9.56158 113.643 9.86607C113.223 10.2052 112.855 10.6079 112.553 11.0603L112.368 11.2054C111.65 11.8538 110.881 12.4399 110.069 12.9576C109.088 13.5714 108.085 14.1406 107.05 14.6763L107.148 14.5424C107.682 13.8616 108.14 13.2143 108.532 12.6116C108.782 12.2775 108.971 11.8992 109.088 11.4955C109.088 11.3839 108.848 11.3281 108.423 11.3616C107.851 11.5722 107.359 11.9629 107.017 12.4777C106.777 12.7455 106.581 12.9799 106.418 13.1808L106.276 13.3594C105.949 13.7612 105.535 14.2969 105.045 14.9777C104.554 15.6585 104.173 16.2054 103.955 16.6071L103.824 16.8304C103.194 17.5656 102.812 18.4892 102.734 19.4643C102.755 19.6168 102.817 19.7604 102.913 19.8787C103.01 19.9971 103.136 20.0855 103.279 20.1339C103.626 20.2717 104.003 20.3103 104.369 20.2455C105.088 20.1118 105.76 19.7887 106.32 19.308C106.959 18.8153 107.528 18.2329 108.009 17.5781C108.367 17.1848 108.579 16.6753 108.608 16.1384C108.499 15.7478 108.172 15.5246 107.617 15.4799C107.617 15.4799 107.834 15.2902 108.303 15.0446C109.616 14.3442 110.844 13.4903 111.965 12.5C111.922 12.7286 111.922 12.9634 111.965 13.192C111.988 13.3754 112.047 13.5522 112.139 13.7114C112.23 13.8707 112.353 14.0091 112.499 14.1183C112.857 14.3443 113.286 14.4202 113.698 14.3304C114.316 14.22 114.91 13.997 115.452 13.6719C116.08 13.3136 116.678 12.903 117.239 12.4442C117.816 11.9591 118.355 11.4293 118.852 10.8594C118.996 10.7045 119.12 10.5321 119.223 10.346C119.312 10.4592 119.372 10.5935 119.397 10.7366C119.403 11.3035 119.295 11.8656 119.081 12.3884C119.016 12.5893 118.961 12.7567 118.918 12.9241C118.905 13.013 118.905 13.1031 118.918 13.192C118.918 13.471 119.146 13.6719 119.506 13.8058C119.806 13.9318 120.132 13.9779 120.454 13.9397C121.015 13.7686 121.53 13.4669 121.958 13.058C122.416 12.6897 122.863 12.2879 123.309 11.875C123.329 11.9738 123.366 12.0683 123.418 12.154C123.535 12.2743 123.676 12.3659 123.833 12.4219C123.978 12.4935 124.14 12.5243 124.301 12.5112C124.635 12.4266 124.945 12.2621 125.206 12.0312C125.478 11.8192 126.056 11.3393 126.917 10.6027C126.922 10.6509 126.922 10.6995 126.917 10.7478C126.911 10.7959 126.911 10.8447 126.917 10.8929C126.917 10.8929 126.917 11.0045 126.917 11.0937C126.943 11.2406 126.999 11.3805 127.079 11.5051C127.16 11.6298 127.264 11.7366 127.385 11.8192C127.633 12.0155 127.946 12.1038 128.257 12.0647C128.973 11.8359 129.65 11.4932 130.262 11.0491L130.949 10.5469C130.793 10.8298 130.658 11.1245 130.546 11.4286C130.64 11.5783 130.745 11.7201 130.862 11.8527C130.916 11.9208 130.987 11.9724 131.068 12.0019C131.148 12.0314 131.235 12.0377 131.319 12.0201C131.788 11.6941 132.222 11.3202 132.616 10.904C133.15 10.4129 133.706 9.95535 134.24 9.50893C134.587 9.18322 134.985 8.91918 135.417 8.72768C135.417 8.72768 135.417 8.72768 135.417 8.8058C135.424 8.87258 135.424 8.93991 135.417 9.00669C135.417 9.09598 135.417 9.20759 135.417 9.33035C135.435 9.61068 135.556 9.87372 135.755 10.067C135.874 10.1714 136.013 10.2483 136.163 10.2926C136.314 10.3369 136.472 10.3475 136.627 10.3237C136.802 10.3002 136.972 10.2434 137.128 10.1562C137.261 10.0759 137.388 9.98638 137.509 9.88839C137.423 10.0529 137.378 10.2371 137.379 10.4241C137.395 10.5458 137.448 10.6591 137.531 10.7478C137.608 10.851 137.7 10.9414 137.804 11.0156C137.875 11.0735 137.963 11.105 138.054 11.1049C138.117 11.0766 138.17 11.03 138.207 10.971C138.403 10.7589 138.872 10.3237 139.613 9.67634C140.354 9.02902 141.127 8.39285 141.912 7.76785C142.35 7.35346 142.855 7.02103 143.405 6.78571L143.253 7.00893C142.086 8.92857 141.52 10.0446 141.585 10.5134C141.61 10.6174 141.655 10.7149 141.719 10.7995C141.783 10.8841 141.864 10.954 141.956 11.0045C142.115 11.1388 142.316 11.2101 142.522 11.2054C142.65 11.1646 142.759 11.0772 142.828 10.9598C143.405 10.279 144.092 9.52009 144.898 8.72768C145.612 7.97786 146.377 7.28046 147.187 6.64062C147.102 6.91918 147.033 7.20236 146.98 7.48884C146.952 7.66631 146.952 7.84708 146.98 8.02455C146.993 8.13865 147.03 8.2485 147.088 8.34669C147.147 8.44488 147.225 8.52912 147.317 8.59375C147.499 8.75822 147.712 8.88349 147.942 8.96211C148.173 9.04072 148.416 9.07107 148.658 9.05134C149.371 8.82273 150.028 8.44239 150.587 7.93527C150.519 8.15511 150.497 8.38695 150.521 8.61607C150.534 8.75626 150.578 8.89162 150.65 9.01163C150.721 9.13165 150.819 9.23308 150.936 9.30803C151.151 9.44735 151.392 9.53863 151.644 9.57589C151.734 9.59288 151.826 9.59288 151.916 9.57589C152.948 9.25131 153.909 8.72862 154.75 8.03571C156.17 7.12369 157.492 6.0613 158.695 4.86607C158.935 4.63169 159.054 4.46428 159.044 4.38616C159.033 4.30803 158.913 4.27455 158.782 4.24107ZM114.21 10.9375C114.537 10.625 114.831 10.3571 115.092 10.1451C115.176 10.061 115.276 9.99625 115.387 9.95535C115.229 10.3712 114.992 10.7507 114.689 11.0714C114.504 11.2723 114.34 11.4397 114.166 11.596L113.905 11.7634V11.6853C113.858 11.6362 113.828 11.5739 113.817 11.5067C113.785 11.4286 113.926 11.2277 114.21 10.9598V10.9375ZM107.202 16.9978C106.939 17.3766 106.639 17.728 106.309 18.0469C105.97 18.4046 105.605 18.7366 105.219 19.0402C104.987 19.2486 104.716 19.4079 104.423 19.5089C104.423 19.5089 104.358 19.5089 104.347 19.5089C104.391 19.2231 104.483 18.9474 104.62 18.6942C104.887 18.1001 105.2 17.5291 105.557 16.9866C105.679 16.7496 105.829 16.5285 106.004 16.3281C106.07 16.287 106.144 16.2604 106.222 16.25L106.647 16.1607L107.333 16.0045C107.431 16.0045 107.486 16.0045 107.497 16.0045C107.508 16.0045 107.497 16.0045 107.497 16.0714C107.499 16.4116 107.396 16.7437 107.202 17.0201V16.9978ZM126.045 10.0446C125.61 10.4453 125.151 10.8181 124.672 11.1607L124.486 11.317C124.839 10.7398 125.244 10.198 125.696 9.69866C126.145 9.22229 126.682 8.8428 127.276 8.58259C126.92 9.11508 126.507 9.60543 126.045 10.0446Z" fill="white"/>
<path d="M153.398 4.01786C153.58 4.15648 153.807 4.21661 154.031 4.18527C154.295 4.15077 154.542 4.03387 154.739 3.85044C154.924 3.67187 155 3.51562 154.979 3.37053C154.957 3.22544 154.815 3.03571 154.565 2.91294C154.315 2.78681 154.035 2.73647 153.758 2.76786C153.582 2.80176 153.414 2.87408 153.268 2.97991C153.184 3.02621 153.117 3.09926 153.078 3.18792C153.039 3.27658 153.029 3.37598 153.05 3.47098C153.067 3.58228 153.106 3.68863 153.167 3.78293C153.227 3.87723 153.306 3.95732 153.398 4.01786Z" fill="white"/>
</g>
<defs>
<clipPath id="clip0_307_2236">
<rect width="159" height="45" fill="white"/>
</clipPath>
</defs>
</svg>
