<svg width="20" height="21" viewBox="0 0 20 21" fill="none" xmlns="http://www.w3.org/2000/svg">
<path d="M12.7498 18.2241C13.164 18.2241 13.4998 17.8883 13.4998 17.4741C13.4998 17.0599 13.164 16.7241 12.7498 16.7241H6.49976C5.39519 16.7241 4.49976 15.8287 4.49976 14.7241V6.72412C4.49976 5.61955 5.39519 4.72412 6.49976 4.72412H12.7498C13.164 4.72412 13.4998 4.38833 13.4998 3.97412C13.4998 3.55991 13.164 3.22412 12.7498 3.22412H6.49976C4.56676 3.22412 2.99976 4.79112 2.99976 6.72412V14.7241C2.99976 16.6571 4.56676 18.2241 6.49976 18.2241H12.7498ZM13.741 6.92302C14.0454 6.64207 14.5199 6.66105 14.8009 6.96541L17.8009 10.2154C18.0661 10.5027 18.0661 10.9455 17.8009 11.2328L14.8009 14.4828C14.5199 14.7872 14.0454 14.8062 13.741 14.5252C13.4367 14.2443 13.4177 13.7698 13.6987 13.4654L15.5368 11.4741H7.74976C7.33554 11.4741 6.99976 11.1383 6.99976 10.7241C6.99976 10.3099 7.33554 9.97412 7.74976 9.97412H15.5368L13.6987 7.98283C13.4177 7.67847 13.4367 7.20397 13.741 6.92302Z" fill="#AFAFAF"/>
</svg>
