<svg width="18" height="20" viewBox="0 0 18 20" fill="none" xmlns="http://www.w3.org/2000/svg">
<path d="M9.00004 0.399994C5.02359 0.399994 1.80004 3.62354 1.80004 7.59999V11.9029L0.951513 12.7515C0.608315 13.0947 0.505649 13.6108 0.691386 14.0592C0.877123 14.5076 1.31469 14.8 1.80004 14.8H16.2C16.6854 14.8 17.123 14.5076 17.3087 14.0592C17.4944 13.6108 17.3918 13.0947 17.0486 12.7515L16.2 11.9029V7.59999C16.2 3.62354 12.9765 0.399994 9.00004 0.399994Z" fill="#111827"/>
<path d="M9.00001 19.6C7.01178 19.6 5.40001 17.9882 5.40001 16H12.6C12.6 17.9882 10.9882 19.6 9.00001 19.6Z" fill="#111827"/>
</svg>
