<svg width="16" height="17" viewBox="0 0 16 17" fill="none" xmlns="http://www.w3.org/2000/svg">
<path d="M5.99976 3.17932C5.99976 2.90318 6.22361 2.67932 6.49976 2.67932H15.4998C15.7759 2.67932 15.9998 2.90318 15.9998 3.17932C15.9998 3.45546 15.7759 3.67932 15.4998 3.67932H6.49976C6.22361 3.67932 5.99976 3.45546 5.99976 3.17932ZM5.99976 9.17932C5.99976 8.90318 6.22361 8.67932 6.49976 8.67932H15.4998C15.7759 8.67932 15.9998 8.90318 15.9998 9.17932C15.9998 9.45546 15.7759 9.67932 15.4998 9.67932H6.49976C6.22361 9.67932 5.99976 9.45546 5.99976 9.17932ZM5.99976 15.1793C5.99976 14.9032 6.22361 14.6793 6.49976 14.6793H15.4998C15.7759 14.6793 15.9998 14.9032 15.9998 15.1793C15.9998 15.4555 15.7759 15.6793 15.4998 15.6793H6.49976C6.22361 15.6793 5.99976 15.4555 5.99976 15.1793ZM-0.000244141 14.1793C-0.000244141 13.3509 0.671329 12.6793 1.49976 12.6793H2.49976C3.32818 12.6793 3.99976 13.3509 3.99976 14.1793V15.1793C3.99976 16.0077 3.32818 16.6793 2.49976 16.6793H1.49976C0.671329 16.6793 -0.000244141 16.0077 -0.000244141 15.1793V14.1793ZM-0.000244141 8.17932C-0.000244141 7.35089 0.671329 6.67932 1.49976 6.67932H2.49976C3.32818 6.67932 3.99976 7.35089 3.99976 8.17932V9.17932C3.99976 10.0077 3.32818 10.6793 2.49976 10.6793H1.49976C0.671329 10.6793 -0.000244141 10.0077 -0.000244141 9.17932V8.17932ZM-0.000244141 2.17932C-0.000244141 1.35089 0.671329 0.679321 1.49976 0.679321H2.49976C3.32818 0.679321 3.99976 1.35089 3.99976 2.17932V3.17932C3.99976 4.00775 3.32818 4.67932 2.49976 4.67932H1.49976C0.671329 4.67932 -0.000244141 4.00775 -0.000244141 3.17932V2.17932Z" fill="#AFAFAF"/>
</svg>
