<svg width="14" height="17" viewBox="0 0 14 17" fill="none" xmlns="http://www.w3.org/2000/svg">
<path d="M7.27711 0.763662C7.10916 0.651696 6.89036 0.651696 6.72241 0.763662C4.78421 2.05579 2.68809 2.86199 0.429045 3.18471C0.182721 3.2199 -0.000244141 3.43086 -0.000244141 3.67969V8.17969C-0.000244141 12.071 2.30675 14.9104 6.82027 16.6464C6.9358 16.6908 7.06371 16.6908 7.17924 16.6464C11.6928 14.9104 13.9998 12.071 13.9998 8.17969V3.67969C13.9998 3.43086 13.8168 3.2199 13.5705 3.18471C11.3114 2.86199 9.2153 2.05579 7.27711 0.763662ZM8.49976 7.67969C8.49976 8.3328 8.08235 8.88842 7.49976 9.09433V11.1797C7.49976 11.4558 7.2759 11.6797 6.99976 11.6797C6.72361 11.6797 6.49976 11.4558 6.49976 11.1797V9.09433C5.91716 8.88842 5.49976 8.3328 5.49976 7.67969C5.49976 6.85126 6.17133 6.17969 6.99976 6.17969C7.82818 6.17969 8.49976 6.85126 8.49976 7.67969Z" fill="#AFAFAF"/>
</svg>
