<svg width="18" height="18" viewBox="0 0 18 18" fill="none" xmlns="http://www.w3.org/2000/svg">
<path d="M0.910503 6.06235C1.27979 4.92022 1.88814 3.87182 2.69084 2.98332C2.82658 2.83308 3.03954 2.77953 3.2302 2.8477L5.14848 3.5336C5.66856 3.71946 6.24082 3.44852 6.42668 2.92844C6.44495 2.8773 6.45903 2.82476 6.46876 2.77142L6.83422 0.765413C6.87055 0.56596 7.02373 0.408192 7.22203 0.365985C7.80222 0.242489 8.39709 0.179688 8.99977 0.179688C9.60207 0.179688 10.1966 0.242413 10.7765 0.365759C10.9747 0.407929 11.1279 0.565598 11.1643 0.764973L11.5308 2.77133C11.6298 3.31466 12.1506 3.67479 12.6939 3.5757C12.7474 3.56596 12.7999 3.55188 12.851 3.53363L14.7693 2.8477C14.96 2.77953 15.173 2.83308 15.3087 2.98332C16.1114 3.87182 16.7197 4.92022 17.089 6.06235C17.1513 6.25503 17.0913 6.46626 16.9369 6.59733L15.3821 7.91742C14.9611 8.27489 14.9096 8.90596 15.267 9.32695C15.3022 9.36834 15.3407 9.40681 15.382 9.44194L16.9369 10.762C17.0913 10.8931 17.1513 11.1043 17.089 11.297C16.7197 12.4392 16.1114 13.4876 15.3087 14.3761C15.173 14.5263 14.96 14.5798 14.7693 14.5117L12.8511 13.8258C12.331 13.6399 11.7587 13.9109 11.5729 14.4309C11.5546 14.4821 11.5405 14.5346 11.5307 14.5882L11.1643 16.5944C11.1279 16.7938 10.9747 16.9514 10.7765 16.9936C10.1966 17.117 9.60207 17.1797 8.99977 17.1797C8.39709 17.1797 7.80222 17.1169 7.22203 16.9934C7.02373 16.9512 6.87055 16.7934 6.83422 16.594L6.46877 14.588C6.36969 14.0447 5.84891 13.6846 5.30559 13.7837C5.25216 13.7934 5.19962 13.8075 5.14857 13.8257L3.2302 14.5117C3.03954 14.5798 2.82658 14.5263 2.69084 14.3761C1.88814 13.4876 1.27979 12.4392 0.910503 11.297C0.848202 11.1043 0.908275 10.8931 1.06265 10.762L2.61749 9.44196C3.03848 9.08449 3.08997 8.45342 2.7325 8.03243C2.69735 7.99103 2.65888 7.95257 2.61751 7.91744L1.06265 6.59733C0.908275 6.46626 0.848202 6.25503 0.910503 6.06235ZM6.99977 8.67969C6.99977 9.78426 7.8952 10.6797 8.99977 10.6797C10.1043 10.6797 10.9998 9.78426 10.9998 8.67969C10.9998 7.57512 10.1043 6.67969 8.99977 6.67969C7.8952 6.67969 6.99977 7.57512 6.99977 8.67969Z" fill="#AFAFAF"/>
</svg>
