<svg width="16" height="17" viewBox="0 0 16 17" fill="none" xmlns="http://www.w3.org/2000/svg">
<path d="M15 4.01343C15 5.39414 13.8807 6.51343 12.5 6.51343C11.7014 6.51343 10.9903 6.13902 10.5326 5.55617L5.91508 7.86497C5.97047 8.07177 6 8.28915 6 8.51343C6 8.73774 5.97046 8.95515 5.91505 9.16199L10.5326 11.4708C10.9903 10.8879 11.7014 10.5134 12.5 10.5134C13.8807 10.5134 15 11.6327 15 13.0134C15 14.3941 13.8807 15.5134 12.5 15.5134C11.1193 15.5134 10 14.3941 10 13.0134C10 12.7892 10.0295 12.5718 10.0849 12.365L5.46735 10.0562C5.00966 10.639 4.29855 11.0134 3.5 11.0134C2.11929 11.0134 1 9.89414 1 8.51343C1 7.13272 2.11929 6.01343 3.5 6.01343C4.29859 6.01343 5.00973 6.38787 5.46742 6.97076L10.0849 4.66199C10.0295 4.45515 10 4.23774 10 4.01343C10 2.63272 11.1193 1.51343 12.5 1.51343C13.8807 1.51343 15 2.63272 15 4.01343Z" fill="#212121"/>
</svg>
