<svg width="16" height="13" viewBox="0 0 16 13" fill="none" xmlns="http://www.w3.org/2000/svg">
<path d="M1.49976 0.679321C0.671329 0.679321 -0.000244141 1.35089 -0.000244141 2.17932V11.1793C-0.000244141 12.0077 0.671329 12.6793 1.49976 12.6793H14.4998C15.3282 12.6793 15.9998 12.0077 15.9998 11.1793V2.17932C15.9998 1.35089 15.3282 0.679321 14.4998 0.679321H1.49976ZM4.49976 6.67932C3.67133 6.67932 2.99976 6.00775 2.99976 5.17932C2.99976 4.35089 3.67133 3.67932 4.49976 3.67932C5.32818 3.67932 5.99976 4.35089 5.99976 5.17932C5.99976 6.00775 5.32818 6.67932 4.49976 6.67932ZM2.94854 7.42932H6.05097C6.57497 7.42932 6.99976 7.85411 6.99976 8.37811C6.99976 9.22535 6.42314 9.96386 5.6012 10.1693L5.54219 10.1841C4.85776 10.3552 4.14174 10.3552 3.45732 10.1841L3.39831 10.1693C2.57637 9.96386 1.99976 9.22535 1.99976 8.37811C1.99976 7.85411 2.42454 7.42932 2.94854 7.42932ZM8.99976 5.17932C8.99976 4.90318 9.22361 4.67932 9.49976 4.67932H12.4998C12.7759 4.67932 12.9998 4.90318 12.9998 5.17932C12.9998 5.45546 12.7759 5.67932 12.4998 5.67932H9.49976C9.22361 5.67932 8.99976 5.45546 8.99976 5.17932ZM9.49976 7.67932H12.4998C12.7759 7.67932 12.9998 7.90318 12.9998 8.17932C12.9998 8.45546 12.7759 8.67932 12.4998 8.67932H9.49976C9.22361 8.67932 8.99976 8.45546 8.99976 8.17932C8.99976 7.90318 9.22361 7.67932 9.49976 7.67932Z" fill="#AFAFAF"/>
</svg>
