<svg width="14" height="16" viewBox="0 0 14 16" fill="none" xmlns="http://www.w3.org/2000/svg">
<path d="M3.99976 0C2.89519 0 1.99976 0.895431 1.99976 2V5.08516C2.52725 4.89944 3.13784 5.0175 3.55968 5.43934L5.55968 7.43934C6.14547 8.02513 6.14547 8.97487 5.55968 9.56066L3.55968 11.5607C3.13784 11.9825 2.52725 12.1006 1.99976 11.9148V14C1.99976 15.1046 2.89519 16 3.99976 16H9.99976C11.1043 16 11.9998 15.1046 11.9998 14V11.9146C11.4721 12.1007 10.8611 11.9827 10.4391 11.5607L8.4391 9.56066C7.85331 8.97487 7.85331 8.02513 8.4391 7.43934L10.4391 5.43934C10.8611 5.0173 11.4721 4.89933 11.9998 5.08542V2C11.9998 0.89543 11.1043 0 9.99976 0H3.99976ZM11.8533 6.14645C12.0486 6.34171 12.0486 6.65829 11.8533 6.85355L10.7069 8H13.499C13.7752 8 13.999 8.22386 13.999 8.5C13.999 8.77614 13.7752 9 13.499 9H10.7069L11.8533 10.1464C12.0486 10.3417 12.0486 10.6583 11.8533 10.8536C11.658 11.0488 11.3415 11.0488 11.1462 10.8536L9.1462 8.85355C8.95094 8.65829 8.95094 8.34171 9.1462 8.14645L11.1462 6.14645C11.3415 5.95118 11.658 5.95118 11.8533 6.14645ZM2.14547 6.85355C1.95021 6.65829 1.95021 6.34171 2.14547 6.14645C2.34073 5.95118 2.65731 5.95118 2.85258 6.14645L4.85258 8.14645C5.04784 8.34171 5.04784 8.65829 4.85258 8.85355L2.85258 10.8536C2.65731 11.0488 2.34073 11.0488 2.14547 10.8536C1.95021 10.6583 1.95021 10.3417 2.14547 10.1464L3.29192 9H0.499756C0.223613 9 -0.000244141 8.77614 -0.000244141 8.5C-0.000244141 8.22386 0.223613 8 0.499756 8H3.29192L2.14547 6.85355Z" fill="#AFAFAF"/>
</svg>
