<svg width="15" height="18" viewBox="0 0 15 18" fill="none" xmlns="http://www.w3.org/2000/svg">
<path d="M7.78009 0.398991C7.48719 0.106098 7.01232 0.106098 6.71943 0.398991C6.42653 0.691884 6.42653 1.16676 6.71943 1.45965L7.9391 2.67932H7.49976C3.35762 2.67932 -0.000244141 6.03719 -0.000244141 10.1793C-0.000244141 14.3215 3.35762 17.6793 7.49976 17.6793C11.6419 17.6793 14.9998 14.3215 14.9998 10.1793C14.9998 9.76511 14.664 9.42932 14.2498 9.42932C13.8355 9.42932 13.4998 9.76511 13.4998 10.1793C13.4998 13.493 10.8135 16.1793 7.49976 16.1793C4.18605 16.1793 1.49976 13.493 1.49976 10.1793C1.49976 6.88596 4.15316 4.21233 7.43879 4.17962L6.71943 4.89899C6.42653 5.19188 6.42653 5.66676 6.71943 5.95965C7.01232 6.25254 7.48719 6.25254 7.78009 5.95965L10.0301 3.70965C10.323 3.41676 10.323 2.94188 10.0301 2.64899L7.78009 0.398991ZM11.5199 6.63896C11.8183 6.9262 11.8274 7.40099 11.5401 7.69942L7.69015 11.6994C7.54876 11.8463 7.35366 11.9293 7.14978 11.9293C6.94589 11.9293 6.75079 11.8463 6.60941 11.6994L4.95938 9.98504C4.67214 9.68659 4.68122 9.21181 4.97967 8.92457C5.27811 8.63733 5.75289 8.64641 6.04013 8.94485L7.14979 10.0978L10.4594 6.65922C10.7466 6.36079 11.2214 6.35171 11.5199 6.63896Z" fill="#AFAFAF"/>
</svg>
