<svg width="18" height="14" viewBox="0 0 18 14" fill="none" xmlns="http://www.w3.org/2000/svg">
<path d="M5.74976 6.67932C7.54468 6.67932 8.99976 5.22425 8.99976 3.42932C8.99976 1.6344 7.54468 0.179321 5.74976 0.179321C3.95483 0.179321 2.49976 1.6344 2.49976 3.42932C2.49976 5.22425 3.95483 6.67932 5.74976 6.67932ZM11.4371 11.8242C11.9665 12.0412 12.6407 12.1793 13.4989 12.1793C17.4989 12.1793 17.4989 9.17932 17.4989 9.17932C17.4989 8.35089 16.8274 7.67932 15.9989 7.67932H11.3712C11.7638 8.15479 11.9998 8.76451 11.9998 9.42932V9.74182C11.9998 9.74182 11.9998 9.74119 11.9998 9.74389L11.9998 9.74604L11.9997 9.75061L11.9996 9.76076L11.9992 9.7851C11.9988 9.8031 11.9982 9.82462 11.997 9.84944C11.9947 9.89904 11.9906 9.96214 11.9832 10.0369C11.9685 10.1858 11.9406 10.384 11.8873 10.6156C11.8094 10.9538 11.674 11.3769 11.4371 11.8242ZM15.9998 4.17932C15.9998 5.56003 14.8805 6.67932 13.4998 6.67932C12.119 6.67932 10.9998 5.56003 10.9998 4.17932C10.9998 2.79861 12.119 1.67932 13.4998 1.67932C14.8805 1.67932 15.9998 2.79861 15.9998 4.17932ZM0.499756 9.67932C0.499756 8.57475 1.39519 7.67932 2.49976 7.67932H8.99976C10.1043 7.67932 10.9998 8.57475 10.9998 9.67932C10.9998 9.67932 10.9998 13.6793 5.74976 13.6793C0.499756 13.6793 0.499756 9.67932 0.499756 9.67932ZM11.9992 9.7851L11.997 9.84944L11.9992 9.7851Z" fill="#AFAFAF"/>
</svg>
